<svg xmlns="http://www.w3.org/2000/svg" fill="none" viewBox="0 0 24 24" id="Nodemon--Streamline-Svg-Logos" height="24" width="24">
  <desc>
    Nodemon Streamline Icon: https://streamlinehq.com
  </desc>
  <path fill="#76d04b" d="M11.44295 23.600925c0.34385 0.198775 0.768 0.198775 1.11185 0l9.2116 -5.315525c0.344475 -0.1986 0.5565 -0.565825 0.5565 -0.963675V6.6825c0 -0.397525 -0.2121 -0.7645 -0.55595 -0.963575L12.555475 0.399075c-0.344525 -0.19876625 -0.768675 -0.19876625 -1.113125 0L2.2332675 5.718925c-0.3441575 0.199 -0.556265 0.566125 -0.556265 0.963575v10.63985c0 0.397225 0.2121075 0.76435 0.556495 0.962975L11.442875 23.60085" stroke-width="0.25"></path>
  <path fill="#4f4d3f" d="m17.96355 9.464025 -0.4108 -0.2364c0.6317 -0.931725 1.009175 -2.332575 0.535825 -4.4269 0 0 -1.06595 2.9875 -3.2088 2.888525l-2.50905 -1.443875c-0.094625 -0.05615 -0.200675 -0.085075 -0.3079 -0.089475h-0.05785c-0.106975 0.004475 -0.212875 0.0334 -0.308825 0.089475L9.186875 7.68925c-2.142625 0.099275 -3.20895 -2.888525 -3.20895 -2.888525 -0.473575 2.09425 -0.095475 3.495075 0.53605 4.4269l-0.4107 0.236475c-0.20865 0.12025 -0.338375 0.34355 -0.338375 0.587125l0.012325 8.6666c0 0.12095 0.06265 0.23295 0.168775 0.2918 0.10365 0.062625 0.232 0.062625 0.335525 0l3.32385 -1.903275c0.210325 -0.12495 0.338225 -0.345325 0.338225 -0.5862V12.47135c0 -0.241425 0.127875 -0.46525 0.337275 -0.584875l1.41535 -0.81505c0.10545 -0.0614 0.220825 -0.09125 0.3386 -0.09125 0.11515 0 0.23355 0.02985 0.33605 0.091175l1.4149 0.81505c0.209475 0.11955 0.337825 0.34345 0.337825 0.5848V16.52c0 0.240875 0.129575 0.46295 0.3386 0.5862l3.323025 1.903275c0.104275 0.062475 0.234475 0.062475 0.337825 0 0.102975 -0.05885 0.16775 -0.170925 0.16775 -0.291875l0.0108 -8.6666c-0.000225 -0.24375 -0.128025 -0.467025 -0.337975 -0.587125l-0.000075 0.00015Z" stroke-width="0.25"></path>
</svg>