<svg version="1.1" id="Layer_1" xmlns="http://www.w3.org/2000/svg" xmlns:xlink="http://www.w3.org/1999/xlink" x="0px" y="0px"
	 width="100%" viewBox="0 0 120 120" enable-background="new 0 0 120 120" xml:space="preserve">
<path fill="#000000" opacity="1.000000" stroke="none" 
	d="
M78.000000,1.000000 
	C92.260872,1.000000 106.521736,1.000000 121.000000,1.000000 
	C121.000000,15.353497 121.000000,29.708090 120.766602,44.857281 
	C119.636292,44.276836 118.739388,42.901794 117.889587,41.155243 
	C115.305420,38.151470 112.674149,35.519203 109.846054,32.539459 
	C104.200226,31.642771 98.751213,31.093561 93.167419,30.530766 
	C93.167419,37.077797 93.167419,42.537811 93.092087,48.382648 
	C91.440079,57.661587 84.808029,62.539433 77.535522,62.092857 
	C71.381271,62.068626 65.689812,62.117573 59.538002,62.093353 
	C55.757328,62.013420 52.406364,61.711861 49.122246,62.053280 
	C37.719700,63.238697 31.880478,66.542458 31.066681,78.072945 
	C30.717457,83.020996 31.110855,88.021446 31.091640,93.458893 
	C31.399813,99.279167 31.783192,104.638657 32.184929,110.344528 
	C34.856949,115.220428 38.592869,118.234245 44.076241,119.421570 
	C44.166798,120.199173 44.083397,120.599586 44.000000,121.000000 
	C29.739132,121.000000 15.478262,121.000000 1.000000,121.000000 
	C1.000000,106.646507 1.000000,92.291908 1.302007,77.218033 
	C2.372722,77.681618 3.141430,78.864471 3.957853,80.398972 
	C6.143441,83.347931 8.281314,85.945259 10.727522,88.748619 
	C16.666203,92.583260 22.722069,90.480606 28.835836,90.934212 
	C28.835836,84.174919 28.835836,78.085022 29.000256,71.672165 
	C31.692247,65.009705 35.452469,60.150616 43.459438,59.900444 
	C50.613861,59.922527 57.303558,59.877888 64.451630,59.898483 
	C67.570877,59.973740 70.257736,60.229420 72.888153,59.951317 
	C84.343452,58.740185 90.087448,55.307034 90.927429,43.951038 
	C91.269485,39.326775 90.885757,34.648823 90.893570,29.533619 
	C90.580856,24.047029 90.206818,19.022125 89.891937,13.626882 
	C88.590378,6.810795 83.964737,4.114964 77.888794,2.531629 
	C77.816727,1.777594 77.908363,1.388797 78.000000,1.000000 
z"/>
<path fill="#000000" opacity="1.000000" stroke="none" 
	d="
M121.000000,76.000000 
	C121.000000,90.924164 121.000000,105.848328 121.000000,121.000000 
	C107.313278,121.000000 93.625298,121.000000 79.131386,120.725204 
	C79.276306,119.940895 80.250900,119.470787 81.173805,118.914886 
	C84.740494,116.766525 89.426147,115.376541 89.872139,110.471611 
	C90.364174,105.060448 89.984451,99.570007 89.984451,93.947411 
	C87.977570,94.036057 86.487183,94.101891 84.533745,94.094826 
	C78.046455,94.070358 72.022224,94.118797 65.567032,94.094032 
	C62.455837,94.080620 59.555870,94.331688 61.820709,89.833252 
	C65.171333,89.833252 68.584908,89.833252 72.461212,89.908150 
	C78.615112,89.933113 84.306267,89.883179 90.460358,89.908051 
	C93.724831,89.988495 96.545761,89.782700 99.324440,90.037582 
	C109.541801,90.974815 116.095818,86.625885 119.136230,76.829147 
	C119.269051,76.401169 120.356972,76.269623 121.000000,76.000000 
z"/>
<path fill="#000000" opacity="1.000000" stroke="none" 
	d="
M1.000000,46.000000 
	C1.000000,31.075832 1.000000,16.151665 1.000000,1.000000 
	C14.686722,1.000000 28.374702,1.000000 42.723595,1.349131 
	C42.569866,2.153221 41.782940,2.669445 40.935841,3.052668 
	C36.999378,4.833511 32.697472,6.597146 32.143574,11.460528 
	C31.602472,16.211536 31.900257,21.078035 32.150192,25.877150 
	C32.186661,26.577387 34.003578,27.184898 35.460987,27.902451 
	C42.281448,27.924213 48.637577,27.878841 55.420441,27.900990 
	C57.979866,28.423391 62.022015,26.593975 60.364964,32.171127 
	C57.522499,32.171127 54.756447,32.171127 51.526131,32.108467 
	C43.706799,32.085812 36.351730,32.125816 28.534657,32.101772 
	C27.074039,32.025742 26.065962,32.098759 25.078272,31.988752 
	C14.055033,30.760986 5.939400,34.269394 2.544606,45.651394 
	C2.470718,45.899124 1.534143,45.889545 1.000000,46.000000 
z"/>
<path fill="#3776AA" opacity="1.000000" stroke="none" 
	d="
M28.996662,32.165821 
	C36.351730,32.125816 43.706799,32.085812 51.457184,32.433777 
	C51.307163,33.638321 50.879215,34.571899 50.199177,35.254234 
	C36.041363,49.459869 21.870399,63.652550 7.641257,77.786606 
	C6.638455,78.782707 5.164830,79.304817 3.910138,80.047333 
	C3.141430,78.864471 2.372722,77.681618 1.302007,76.749374 
	C1.000000,71.645073 1.000000,66.290138 1.361595,60.451759 
	C2.881823,59.405743 4.288732,59.096130 5.160092,58.240883 
	C12.604475,50.934101 19.993757,43.569344 27.276142,36.101616 
	C28.211451,35.142506 28.440464,33.494629 28.996662,32.165821 
z"/>
<path fill="#FFD040" opacity="1.000000" stroke="none" 
	d="
M89.997429,89.833244 
	C84.306267,89.883179 78.615112,89.933113 72.533585,89.578011 
	C73.915939,86.794891 75.487495,84.229301 77.497772,82.072639 
	C84.509949,74.549858 91.564293,67.059608 98.813568,59.766693 
	C105.005959,53.537033 111.488358,47.595650 117.842484,41.526749 
	C118.739388,42.901794 119.636292,44.276836 120.766602,45.325939 
	C121.000000,48.692909 121.000000,52.385818 120.662201,56.601562 
	C120.015434,57.240505 119.619148,57.271210 119.410065,57.484989 
	C109.932907,67.175430 100.448418,76.859108 91.057434,86.632599 
	C90.354797,87.363853 90.334778,88.750999 89.997429,89.833244 
z"/>
<path fill="#3776AA" opacity="1.000000" stroke="none" 
	d="
M54.993702,27.833469 
	C48.637577,27.878841 42.281448,27.924213 35.480114,27.552412 
	C37.038818,24.384890 39.042732,21.634541 41.391434,19.057983 
	C43.815430,18.987404 46.764881,19.468403 47.737427,18.301609 
	C48.781082,17.049498 47.966431,14.248444 48.183300,11.863930 
	C52.324253,8.722728 57.161102,6.670255 58.000000,1.000000 
	C64.354401,1.000000 70.708794,1.000000 77.531601,1.000000 
	C77.908363,1.388797 77.816727,1.777594 77.720802,2.827105 
	C72.231117,9.071770 66.686768,14.599567 61.288425,20.266449 
	C59.030510,22.636683 57.082573,25.302204 54.993702,27.833469 
z"/>
<path fill="#FFD040" opacity="1.000000" stroke="none" 
	d="
M65.997986,94.167236 
	C72.022224,94.118797 78.046455,94.070358 84.516228,94.444107 
	C83.294594,97.282608 81.627419,99.698929 79.553139,102.062805 
	C73.822266,101.384659 72.500786,104.309746 72.824158,109.146866 
	C69.403168,113.269966 66.201584,117.134979 63.000000,121.000000 
	C56.978848,121.000000 50.957695,121.000000 44.468269,121.000000 
	C44.083397,120.599586 44.166798,120.199173 44.331245,119.202728 
	C47.719936,115.125923 51.140938,111.744675 54.306686,108.139305 
	C58.312401,103.577324 62.110401,98.832947 65.997986,94.167236 
z"/>
<path fill="#FFCB3B" opacity="1.000000" stroke="none" 
	d="
M90.460358,89.908051 
	C90.334778,88.750999 90.354797,87.363853 91.057434,86.632599 
	C100.448418,76.859108 109.932907,67.175430 119.410065,57.484989 
	C119.619148,57.271210 120.015434,57.240505 120.662201,57.062199 
	C121.000000,63.021152 121.000000,69.042305 121.000000,75.531731 
	C120.356972,76.269623 119.269051,76.401169 119.136230,76.829147 
	C116.095818,86.625885 109.541801,90.974815 99.324440,90.037582 
	C96.545761,89.782700 93.724831,89.988495 90.460358,89.908051 
z"/>
<path fill="#3778AE" opacity="1.000000" stroke="none" 
	d="
M28.534657,32.101772 
	C28.440464,33.494629 28.211451,35.142506 27.276142,36.101616 
	C19.993757,43.569344 12.604475,50.934101 5.160092,58.240883 
	C4.288732,59.096130 2.881823,59.405743 1.361595,59.984154 
	C1.000000,55.643101 1.000000,51.286201 1.000000,46.464653 
	C1.534143,45.889545 2.470718,45.899124 2.544606,45.651394 
	C5.939400,34.269394 14.055033,30.760986 25.078272,31.988752 
	C26.065962,32.098759 27.074039,32.025742 28.534657,32.101772 
z"/>
<path fill="#FFCB3B" opacity="1.000000" stroke="none" 
	d="
M79.960251,102.115250 
	C81.627419,99.698929 83.294594,97.282608 84.979279,94.517006 
	C86.487183,94.101891 87.977570,94.036057 89.984451,93.947411 
	C89.984451,99.570007 90.364174,105.060448 89.872139,110.471611 
	C89.426147,115.376541 84.740494,116.766525 81.173805,118.914886 
	C80.250900,119.470787 79.276306,119.940895 78.662727,120.725204 
	C73.977905,121.000000 68.955818,121.000000 63.466862,121.000000 
	C66.201584,117.134979 69.403168,113.269966 73.165909,109.305000 
	C75.881950,109.565247 78.753906,110.968918 80.049477,110.078613 
	C83.202705,107.911774 81.895927,104.786057 79.960251,102.115250 
z"/>
<path fill="#3778AE" opacity="1.000000" stroke="none" 
	d="
M41.046646,18.884192 
	C39.042732,21.634541 37.038818,24.384890 35.015778,27.485275 
	C34.003578,27.184898 32.186661,26.577387 32.150192,25.877150 
	C31.900257,21.078035 31.602472,16.211536 32.143574,11.460528 
	C32.697472,6.597146 36.999378,4.833511 40.935841,3.052668 
	C41.782940,2.669445 42.569866,2.153221 43.192253,1.349131 
	C47.689255,1.000000 52.378513,1.000000 57.533882,1.000000 
	C57.161102,6.670255 52.324253,8.722728 47.839466,11.686948 
	C45.341892,11.885276 42.233696,11.345476 41.725330,12.256468 
	C40.731525,14.037375 41.189621,16.628492 41.046646,18.884192 
z"/>
<path fill="#3772A3" opacity="1.000000" stroke="none" 
	d="
M55.420441,27.900990 
	C57.082573,25.302204 59.030510,22.636683 61.288425,20.266449 
	C66.686768,14.599567 72.231117,9.071770 77.884506,3.192342 
	C83.964737,4.114964 88.590378,6.810795 89.566490,13.698168 
	C87.774139,15.273612 86.275124,16.311962 84.973389,17.556641 
	C76.096321,26.044619 67.146919,34.461903 58.453728,43.135395 
	C53.088333,48.488636 48.133739,54.253601 42.994713,59.833721 
	C35.452469,60.150616 31.692247,65.009705 28.674747,71.743958 
	C26.785046,73.264198 25.302895,74.302345 24.000389,75.530937 
	C19.439865,79.832687 14.941290,84.200104 10.419186,88.542580 
	C8.281314,85.945259 6.143441,83.347931 3.957853,80.398972 
	C5.164830,79.304817 6.638455,78.782707 7.641257,77.786606 
	C21.870399,63.652550 36.041363,49.459869 50.199177,35.254234 
	C50.879215,34.571899 51.307163,33.638321 51.921452,32.496437 
	C54.756447,32.171127 57.522499,32.171127 60.364964,32.171127 
	C62.022015,26.593975 57.979866,28.423391 55.420441,27.900990 
z"/>
<path fill="#FFD444" opacity="1.000000" stroke="none" 
	d="
M65.567032,94.094032 
	C62.110401,98.832947 58.312401,103.577324 54.306686,108.139305 
	C51.140938,111.744675 47.719936,115.125923 44.157295,118.825539 
	C38.592869,118.234245 34.856949,115.220428 32.511002,110.274490 
	C33.393997,109.537468 34.085510,109.330811 34.527721,108.879745 
	C48.472649,94.655533 62.415466,80.428963 76.268539,66.115585 
	C77.205330,65.147682 77.438118,63.498417 77.998329,62.166039 
	C84.808029,62.539433 91.440079,57.661587 93.443085,48.364685 
	C99.260567,42.936913 104.651718,37.911926 110.042870,32.886940 
	C112.674149,35.519203 115.305420,38.151470 117.889587,41.155243 
	C111.488358,47.595650 105.005959,53.537033 98.813568,59.766693 
	C91.564293,67.059608 84.509949,74.549858 77.497772,82.072639 
	C75.487495,84.229301 73.915939,86.794891 72.070847,89.503113 
	C68.584908,89.833252 65.171333,89.833252 61.820709,89.833252 
	C59.555870,94.331688 62.455837,94.080620 65.567032,94.094032 
z"/>
<path fill="#FFD849" opacity="1.000000" stroke="none" 
	d="
M77.535522,62.092857 
	C77.438118,63.498417 77.205330,65.147682 76.268539,66.115585 
	C62.415466,80.428963 48.472649,94.655533 34.527721,108.879745 
	C34.085510,109.330811 33.393997,109.537468 32.492638,109.928101 
	C31.783192,104.638657 31.399813,99.279167 31.417698,93.388855 
	C38.528336,86.267632 45.399235,79.830864 51.876804,73.019997 
	C54.969173,69.768509 57.314598,65.806625 59.998352,62.166519 
	C65.689812,62.117573 71.381271,62.068626 77.535522,62.092857 
z"/>
<path fill="#376F9E" opacity="1.000000" stroke="none" 
	d="
M43.459438,59.900444 
	C48.133739,54.253601 53.088333,48.488636 58.453728,43.135395 
	C67.146919,34.461903 76.096321,26.044619 84.973389,17.556641 
	C86.275124,16.311962 87.774139,15.273612 89.507324,14.068506 
	C90.206818,19.022125 90.580856,24.047029 90.568344,29.605419 
	C82.473412,37.573902 74.625648,44.873276 67.160957,52.545376 
	C65.433281,54.321049 65.014397,57.370136 63.993256,59.833252 
	C57.303558,59.877888 50.613861,59.922527 43.459438,59.900444 
z"/>
<path fill="#FFDC4D" opacity="1.000000" stroke="none" 
	d="
M59.537998,62.093353 
	C57.314598,65.806625 54.969173,69.768509 51.876804,73.019997 
	C45.399235,79.830864 38.528336,86.267632 31.492903,92.928055 
	C31.110855,88.021446 30.717457,83.020996 31.066681,78.072945 
	C31.880478,66.542458 37.719700,63.238697 49.122246,62.053280 
	C52.406364,61.711861 55.757328,62.013420 59.537998,62.093353 
z"/>
<path fill="#366B98" opacity="1.000000" stroke="none" 
	d="
M64.451630,59.898483 
	C65.014397,57.370136 65.433281,54.321049 67.160957,52.545376 
	C74.625648,44.873276 82.473412,37.573902 90.507011,30.067102 
	C90.885757,34.648823 91.269485,39.326775 90.927429,43.951038 
	C90.087448,55.307034 84.343452,58.740185 72.888153,59.951317 
	C70.257736,60.229420 67.570877,59.973740 64.451630,59.898483 
z"/>
<path fill="#376F9E" opacity="1.000000" stroke="none" 
	d="
M10.727522,88.748619 
	C14.941290,84.200104 19.439865,79.832687 24.000389,75.530937 
	C25.302895,74.302345 26.785046,73.264198 28.510326,72.066925 
	C28.835836,78.085022 28.835836,84.174919 28.835836,90.934212 
	C22.722069,90.480606 16.666203,92.583260 10.727522,88.748619 
z"/>
<path fill="#FFD849" opacity="1.000000" stroke="none" 
	d="
M109.846054,32.539459 
	C104.651718,37.911926 99.260567,42.936913 93.518417,47.979858 
	C93.167419,42.537811 93.167419,37.077797 93.167419,30.530766 
	C98.751213,31.093561 104.200226,31.642771 109.846054,32.539459 
z"/>
<path fill="#000000" opacity="1.000000" stroke="none" 
	d="
M41.391434,19.057983 
	C41.189621,16.628492 40.731525,14.037375 41.725330,12.256468 
	C42.233696,11.345476 45.341892,11.885276 47.618889,11.946350 
	C47.966431,14.248444 48.781082,17.049498 47.737427,18.301609 
	C46.764881,19.468403 43.815430,18.987404 41.391434,19.057983 
z"/>
<path fill="#000000" opacity="1.000000" stroke="none" 
	d="
M79.553139,102.062805 
	C81.895927,104.786057 83.202705,107.911774 80.049477,110.078613 
	C78.753906,110.968918 75.881950,109.565247 73.385315,109.046913 
	C72.500786,104.309746 73.822266,101.384659 79.553139,102.062805 
z"/>
</svg>